# xmcd
#
# Track frame offsets: 
#        150
#        13252
#        27820
#        38956
#        51252
#        61548
#        70644
#        82845
#        93561
#        106518
#        117699
#        132557
#        141461
#        151254
#        163442
#        176258
#        186682
#        199356
#        207179
#        217240
#        230285
#        243076
#        253969
#        268526
#        278522
#        287764
#        299914
#
# Disc length: 4137 seconds
#
# Revision: 0
# Processed by: cddbd v1.5.2PL0 Copyright (c) Steve Scherf et al.
# Submitted via: ExactAudioCopy v1.0b4
#
DISCID=a210271b
DTITLE=Clifton Chenier - Clifton Chenier's Rockin' Accordion 
DYEAR=2015
DGENRE=Zydeco
TTITLE0=Louisiana Stomp
TTITLE1=Clifton Blues
TTITLE2=Country Bred
TTITLE3=Rockin' the Bop
TTITLE4=Tell Me
TTITLE5=Rockin' Hop
TTITLE6=Ay Tete Fee (Eh Petite Fille)
TTITLE7=Boppin' the Rock
TTITLE8=The Things I Did for You
TTITLE9=Think It Over
TTITLE10=Wherever You Go I'll Go
TTITLE11=Clifton's Squeeze Box Boogie
TTITLE12=The Cat's Dreamin'
TTITLE13=All Night Long
TTITLE14=Yesterday (I Lost My Best Friend)
TTITLE15=Opelousas Hop
TTITLE16=I'm on My Way
TTITLE17=Chenier's Boogie
TTITLE18=Zodico Stomp
TTITLE19=Clifton's Dreamin'
TTITLE20=The Big Wheel
TTITLE21=It Happened so Fast
TTITLE22=Goodbye Baby
TTITLE23=Worried Life Blues
TTITLE24=Hey Ma Ma
TTITLE25=Night and Day My Love
TTITLE26=Rockin' Accordion
EXTD=
EXTT0=
EXTT1=
EXTT2=
EXTT3=
EXTT4=
EXTT5=
EXTT6=
EXTT7=
EXTT8=
EXTT9=
EXTT10=
EXTT11=
EXTT12=
EXTT13=
EXTT14=
EXTT15=
EXTT16=
EXTT17=
EXTT18=
EXTT19=
EXTT20=
EXTT21=
EXTT22=
EXTT23=
EXTT24=
EXTT25=
EXTT26=
PLAYORDER=
